<?xml version="1.0" encoding="UTF-8" standalone="no"?>
<svg width="1280" height="720" viewBox="0 0 1280 720" xmlns="http://www.w3.org/2000/svg">
    <!-- Parchment Background -->
    <rect width="1280" height="720" fill="#F5E8C7" />

    <!-- Subtle Noise Texture (simulated with a faint pattern) -->
    <defs>
        <filter id="noise">
            <feTurbulence type="fractalNoise" baseFrequency="0.5" numOctaves="2" result="noise" />
            <feColorMatrix type="saturate" values="0" />
            <feBlend in="SourceGraphic" in2="noise" mode="multiply" result="textured" />
        </filter>
    </defs>
    <rect width="1280" height="720" fill="#F5E8C7" filter="url(#noise)" opacity="0.1" />

    <!-- Card Display Area (scroll-like) -->
    <rect x="400" y="101" width="500" height="500" fill="#E8D9A8" opacity="0.7" />
    <!-- Curled edges -->
    <path d="M400,101 Q390,111 400,121 V581 Q390,591 400,601" fill="none" stroke="#8B5A2B" stroke-width="2" opacity="0.5" />
    <path d="M900,101 Q910,111 900,121 V581 Q910,591 900,601" fill="none" stroke="#8B5A2B" stroke-width="2" opacity="0.5" />

    <!-- Compass Rose (top-left) -->
    <g transform="translate(50, 50) scale(0.5)">
        <circle cx="50" cy="50" r="40" fill="none" stroke="#8B5A2B" stroke-width="2" />
        <line x1="50" y1="10" x2="50" y2="90" stroke="#8B5A2B" stroke-width="2" />
        <line x1="10" y1="50" x2="90" y2="50" stroke="#8B5A2B" stroke-width="2" />
        <text x="48" y="20" font-size="16" fill="#8B5A2B" text-anchor="middle">N</text>
        <text x="48" y="90" font-size="16" fill="#8B5A2B" text-anchor="middle">S</text>
        <text x="20" y="55" font-size="16" fill="#8B5A2B" text-anchor="middle">W</text>
        <text x="80" y="55" font-size="16" fill="#8B5A2B" text-anchor="middle">E</text>
    </g>

    <!-- Mountains (bottom margin) -->
    <path d="M0,720 L200,650 Q300,620 400,650 L600,720 Z" fill="#A9A9A9" opacity="0.3" />
    <path d="M600,720 L800,670 Q900,640 1000,670 L1280,720 Z" fill="#A9A9A9" opacity="0.3" />

    <!-- Parchment Border -->
    <rect x="10" y="10" width="1260" height="700" fill="none" stroke="#8B5A2B" stroke-width="20" opacity="0.6" rx="10" />
    <!-- Rough edge effect -->
    <rect x="0" y="0" width="1280" height="720" fill="none" stroke="#8B5A2B" stroke-width="2" opacity="0.4"
          stroke-dasharray="10,5" />

    <!-- Decorative Left Margin (tree silhouette) -->
    <path d="M70,650 Q60,620 80,600 Q70,580 90,560 Q80,540 70,520 V650 Z" fill="#228B22" opacity="0.3" />
</svg>